<svg width="42" height="38" viewBox="0 0 42 38" fill="none" xmlns="http://www.w3.org/2000/svg">
<path d="M6.10156 37.8438H36.7266C39.8125 37.8438 41.8242 35.5195 41.8242 32.7266C41.8242 31.8672 41.6094 31.0078 41.1602 30.207L25.8281 2.78516C24.8516 1.02734 23.1523 0.167969 21.4141 0.167969C19.6758 0.167969 17.957 1.04688 17 2.78516L1.66797 30.2266C1.21875 31.0273 0.984375 31.8672 0.984375 32.7266C0.984375 35.5195 3.01562 37.8438 6.10156 37.8438ZM21.4336 24.2109C20.1836 24.2109 19.4805 23.5078 19.4219 22.2578L19.1289 13.0195C19.0703 11.7109 20.0273 10.793 21.4141 10.793C22.7812 10.793 23.7578 11.7109 23.6992 13.0195L23.4062 22.2383C23.3477 23.5273 22.6445 24.2109 21.4336 24.2109ZM21.4336 31.0664C20.0273 31.0664 18.875 30.1094 18.875 28.7422C18.875 27.375 20.0078 26.3984 21.4336 26.3984C22.8594 26.3984 23.9727 27.375 23.9727 28.7422C23.9727 30.1289 22.8398 31.0664 21.4336 31.0664Z" fill="black"/>
</svg>
