<svg width="16" height="18" viewBox="0 0 16 18" fill="none" xmlns="http://www.w3.org/2000/svg">
<path d="M0.960938 10.9062C0.960938 14.8047 4.10156 17.9531 8 17.9531C11.8906 17.9531 15.0312 14.8047 15.0312 10.9062C15.0312 10.3828 14.6641 10.0156 14.1484 10.0156C13.6406 10.0156 13.2969 10.3828 13.2969 10.9062C13.2969 13.8438 10.9375 16.2109 8 16.2109C5.0625 16.2109 2.70312 13.8438 2.70312 10.9062C2.70312 7.92969 5.02344 5.58594 7.95312 5.58594C8.40625 5.58594 8.82031 5.61719 9.17969 5.6875L7.21094 7.64062C7.05469 7.79688 6.96875 7.98438 6.96875 8.21094C6.96875 8.69531 7.33594 9.0625 7.8125 9.0625C8.05469 9.0625 8.25781 8.98438 8.40625 8.82812L11.6094 5.60156C11.7891 5.41406 11.875 5.20312 11.875 4.96094C11.875 4.72656 11.7812 4.5 11.6094 4.32812L8.40625 1.07812C8.25 0.90625 8.05469 0.820312 7.8125 0.820312C7.33594 0.820312 6.96875 1.21094 6.96875 1.6875C6.96875 1.92188 7.05469 2.10938 7.20312 2.27344L8.94531 3.99219C8.64844 3.92969 8.30469 3.89844 7.95312 3.89844C4.0625 3.89844 0.960938 7.00781 0.960938 10.9062Z" fill="black"/>
</svg>
